<?xml version="1.0" encoding="utf-8"?>
<!-- Generator: Adobe Illustrator 25.2.0, SVG Export Plug-In . SVG Version: 6.00 Build 0)  -->
<svg version="1.1" id="Layer_1" xmlns="http://www.w3.org/2000/svg" xmlns:xlink="http://www.w3.org/1999/xlink" x="0px" y="0px"
	 viewBox="0 0 500 500" style="enable-background:new 0 0 500 500;" xml:space="preserve">
<style type="text/css">
	.st0{fill-rule:evenodd;clip-rule:evenodd;fill:#C2003C;}
	.st1{fill-rule:evenodd;clip-rule:evenodd;fill:#F77D0E;}
</style>
<g>
	<path class="st0" d="M374.4,353.2c-34.1,48.9-88.6,76.9-150,80.4C210.8,472,173.3,500,129,500c-54.5,0-98.8-45.5-98.8-104.9
		c0-56,44.3-101.4,98.8-101.4c51.1,0,92,35,98.9,83.9c40.9,0,75-21,95.4-49C336.9,342.7,354,349.7,374.4,353.2z"/>
	<path class="st0" d="M377.8,146.8c-20.4,0-40.9,7-54.5,21c-23.9-28-57.9-45.5-95.4-45.5c-6.8,49-47.7,83.9-98.9,83.9
		c-54.5,0-98.8-45.5-98.8-104.9C30.2,45.5,74.5,0,129,0c44.3,0,78.4,24.5,95.4,62.9C285.8,66.4,343.7,97.9,377.8,146.8z"/>
	<path class="st1" d="M469.8,248.2c0,49-37.5,90.9-85.2,90.9h-3.4c-20.4,0-37.5-10.5-51.1-21c-20.4-17.5-30.7-42-30.7-69.9
		c0-28,10.2-52.4,30.7-66.4c13.6-14,34.1-21,54.5-21C432.3,160.8,469.8,199.3,469.8,248.2z"/>
</g>
</svg>
